<?xml version="1.0" encoding="UTF-8" standalone="no"?>
<!DOCTYPE svg PUBLIC "-//W3C//DTD SVG 1.1//EN"
 "http://www.w3.org/Graphics/SVG/1.1/DTD/svg11.dtd">
<!-- Generated by graphviz version 2.43.0 (0)
 -->
<!-- Title: G Pages: 1 -->
<svg width="1572pt" height="98pt"
 viewBox="0.00 0.00 1572.00 98.00" xmlns="http://www.w3.org/2000/svg" xmlns:xlink="http://www.w3.org/1999/xlink">
<g id="graph0" class="graph" transform="scale(1 1) rotate(0) translate(4 94)">
<title>G</title>
<polygon fill="white" stroke="transparent" points="-4,4 -4,-94 1568,-94 1568,4 -4,4"/>
<!-- data.aws_subnet.sub&#45;id -->
<g id="node1" class="node">
<title>data.aws_subnet.sub&#45;id</title>
<polygon fill="none" stroke="black" points="395.5,-90 213.5,-90 213.5,-54 395.5,-54 395.5,-90"/>
<text text-anchor="middle" x="304.5" y="-68.3" font-family="sans-serif" font-size="14.00">data.aws_subnet.sub&#45;id</text>
</g>
<!-- data.aws_vpc.all&#45;vpc -->
<g id="node2" class="node">
<title>data.aws_vpc.all&#45;vpc</title>
<polygon fill="none" stroke="black" points="160,-63 0,-63 0,-27 160,-27 160,-63"/>
<text text-anchor="middle" x="80" y="-41.3" font-family="sans-serif" font-size="14.00">data.aws_vpc.all&#45;vpc</text>
</g>
<!-- data.aws_subnet.sub&#45;id&#45;&gt;data.aws_vpc.all&#45;vpc -->
<g id="edge1" class="edge">
<title>data.aws_subnet.sub&#45;id&#45;&gt;data.aws_vpc.all&#45;vpc</title>
<path fill="none" stroke="black" d="M213.32,-61.06C199.17,-59.34 184.54,-57.56 170.41,-55.85"/>
<polygon fill="black" stroke="black" points="170.57,-52.34 160.22,-54.61 169.72,-59.29 170.57,-52.34"/>
</g>
<!-- aws_autoscaling_group.example -->
<g id="node3" class="node">
<title>aws_autoscaling_group.example</title>
<polygon fill="none" stroke="black" points="955,-63 714,-63 714,-27 955,-27 955,-63"/>
<text text-anchor="middle" x="834.5" y="-41.3" font-family="sans-serif" font-size="14.00">aws_autoscaling_group.example</text>
</g>
<!-- aws_autoscaling_group.example&#45;&gt;data.aws_subnet.sub&#45;id -->
<g id="edge2" class="edge">
<title>aws_autoscaling_group.example&#45;&gt;data.aws_subnet.sub&#45;id</title>
<path fill="none" stroke="black" d="M713.69,-51.13C620.76,-55.88 493.46,-62.39 405.86,-66.87"/>
<polygon fill="black" stroke="black" points="405.45,-63.38 395.64,-67.39 405.81,-70.38 405.45,-63.38"/>
</g>
<!-- aws_launch_template.example -->
<g id="node8" class="node">
<title>aws_launch_template.example</title>
<polygon fill="none" stroke="black" points="678,-40 449,-40 449,-4 678,-4 678,-40"/>
<text text-anchor="middle" x="563.5" y="-18.3" font-family="sans-serif" font-size="14.00">aws_launch_template.example</text>
</g>
<!-- aws_autoscaling_group.example&#45;&gt;aws_launch_template.example -->
<g id="edge3" class="edge">
<title>aws_autoscaling_group.example&#45;&gt;aws_launch_template.example</title>
<path fill="none" stroke="black" d="M713.95,-34.78C705.37,-34.04 696.72,-33.3 688.12,-32.57"/>
<polygon fill="black" stroke="black" points="688.33,-29.08 678.07,-31.71 687.74,-36.05 688.33,-29.08"/>
</g>
<!-- aws_autoscaling_policy.scale_in -->
<g id="node4" class="node">
<title>aws_autoscaling_policy.scale_in</title>
<polygon fill="none" stroke="black" points="1230,-90 996,-90 996,-54 1230,-54 1230,-90"/>
<text text-anchor="middle" x="1113" y="-68.3" font-family="sans-serif" font-size="14.00">aws_autoscaling_policy.scale_in</text>
</g>
<!-- aws_autoscaling_policy.scale_in&#45;&gt;aws_autoscaling_group.example -->
<g id="edge4" class="edge">
<title>aws_autoscaling_policy.scale_in&#45;&gt;aws_autoscaling_group.example</title>
<path fill="none" stroke="black" d="M995.94,-60.67C985.85,-59.68 975.61,-58.68 965.42,-57.69"/>
<polygon fill="black" stroke="black" points="965.55,-54.18 955.26,-56.69 964.87,-61.15 965.55,-54.18"/>
</g>
<!-- aws_autoscaling_policy.scale_out -->
<g id="node5" class="node">
<title>aws_autoscaling_policy.scale_out</title>
<polygon fill="none" stroke="black" points="1235,-36 991,-36 991,0 1235,0 1235,-36"/>
<text text-anchor="middle" x="1113" y="-14.3" font-family="sans-serif" font-size="14.00">aws_autoscaling_policy.scale_out</text>
</g>
<!-- aws_autoscaling_policy.scale_out&#45;&gt;aws_autoscaling_group.example -->
<g id="edge5" class="edge">
<title>aws_autoscaling_policy.scale_out&#45;&gt;aws_autoscaling_group.example</title>
<path fill="none" stroke="black" d="M990.72,-29.84C982.37,-30.66 973.93,-31.48 965.53,-32.3"/>
<polygon fill="black" stroke="black" points="964.92,-28.85 955.31,-33.3 965.6,-35.81 964.92,-28.85"/>
</g>
<!-- aws_cloudwatch_metric_alarm.high_cpu -->
<g id="node6" class="node">
<title>aws_cloudwatch_metric_alarm.high_cpu</title>
<polygon fill="none" stroke="black" points="1564,-36 1271,-36 1271,0 1564,0 1564,-36"/>
<text text-anchor="middle" x="1417.5" y="-14.3" font-family="sans-serif" font-size="14.00">aws_cloudwatch_metric_alarm.high_cpu</text>
</g>
<!-- aws_cloudwatch_metric_alarm.high_cpu&#45;&gt;aws_autoscaling_policy.scale_out -->
<g id="edge6" class="edge">
<title>aws_cloudwatch_metric_alarm.high_cpu&#45;&gt;aws_autoscaling_policy.scale_out</title>
<path fill="none" stroke="black" d="M1270.57,-18C1262.19,-18 1253.79,-18 1245.47,-18"/>
<polygon fill="black" stroke="black" points="1245.37,-14.5 1235.37,-18 1245.37,-21.5 1245.37,-14.5"/>
</g>
<!-- aws_cloudwatch_metric_alarm.low_cpu -->
<g id="node7" class="node">
<title>aws_cloudwatch_metric_alarm.low_cpu</title>
<polygon fill="none" stroke="black" points="1560.5,-90 1274.5,-90 1274.5,-54 1560.5,-54 1560.5,-90"/>
<text text-anchor="middle" x="1417.5" y="-68.3" font-family="sans-serif" font-size="14.00">aws_cloudwatch_metric_alarm.low_cpu</text>
</g>
<!-- aws_cloudwatch_metric_alarm.low_cpu&#45;&gt;aws_autoscaling_policy.scale_in -->
<g id="edge7" class="edge">
<title>aws_cloudwatch_metric_alarm.low_cpu&#45;&gt;aws_autoscaling_policy.scale_in</title>
<path fill="none" stroke="black" d="M1274.11,-72C1262.84,-72 1251.52,-72 1240.37,-72"/>
<polygon fill="black" stroke="black" points="1240.2,-68.5 1230.2,-72 1240.2,-75.5 1240.2,-68.5"/>
</g>
<!-- aws_security_group.example -->
<g id="node9" class="node">
<title>aws_security_group.example</title>
<polygon fill="none" stroke="black" points="413,-36 196,-36 196,0 413,0 413,-36"/>
<text text-anchor="middle" x="304.5" y="-14.3" font-family="sans-serif" font-size="14.00">aws_security_group.example</text>
</g>
<!-- aws_launch_template.example&#45;&gt;aws_security_group.example -->
<g id="edge8" class="edge">
<title>aws_launch_template.example&#45;&gt;aws_security_group.example</title>
<path fill="none" stroke="black" d="M448.65,-20.23C440.25,-20.1 431.77,-19.97 423.35,-19.83"/>
<polygon fill="black" stroke="black" points="423.17,-16.33 413.11,-19.67 423.06,-23.33 423.17,-16.33"/>
</g>
<!-- aws_security_group.example&#45;&gt;data.aws_vpc.all&#45;vpc -->
<g id="edge9" class="edge">
<title>aws_security_group.example&#45;&gt;data.aws_vpc.all&#45;vpc</title>
<path fill="none" stroke="black" d="M195.83,-31.07C187.32,-32.1 178.77,-33.14 170.4,-34.15"/>
<polygon fill="black" stroke="black" points="169.79,-30.7 160.28,-35.38 170.63,-37.65 169.79,-30.7"/>
</g>
</g>
</svg>
